<?xml version="1.0" standalone="no"?>
<!DOCTYPE svg PUBLIC "-//W3C//DTD SVG 20010904//EN"
 "http://www.w3.org/TR/2001/REC-SVG-20010904/DTD/svg10.dtd">
<svg version="1.0" xmlns="http://www.w3.org/2000/svg"
 width="555.000000pt" height="180.000000pt" viewBox="0 0 555.000000 180.000000"
 preserveAspectRatio="xMidYMid meet">

<g transform="translate(0.000000,180.000000) scale(0.100000,-0.100000)"
fill="#c3ccdf" stroke="none">
<path d="M255 1637 c-85 -34 -141 -84 -174 -157 -43 -94 -14 -200 74 -278 43
-37 120 -72 162 -72 10 0 13 -26 13 -112 l0 -113 -116 -116 c-64 -64 -112
-119 -107 -122 5 -3 54 39 109 93 54 55 102 100 107 100 4 0 7 -63 7 -139 l0
-139 -42 -33 c-154 -119 -187 -149 -160 -149 9 0 139 99 182 137 14 13 29 23
35 22 5 0 75 -56 155 -124 80 -68 146 -120 148 -115 4 11 -28 47 -62 69 -13 9
-69 56 -125 106 l-101 90 0 188 c0 186 0 189 19 176 342 -241 328 -232 335
-221 3 5 -76 66 -174 136 l-180 128 0 69 0 69 45 11 c83 21 176 104 190 170 4
18 18 35 35 44 37 19 40 19 40 -3 0 -27 9 -32 39 -20 39 15 68 16 67 3 -1 -13
100 -125 112 -125 4 0 36 30 72 66 50 51 69 64 85 59 55 -18 63 -17 70 5 5 15
12 19 23 15 10 -4 24 -9 32 -12 8 -2 23 -24 34 -48 25 -62 104 -131 172 -151
l54 -15 0 -69 c0 -66 -1 -70 -32 -93 -18 -13 -95 -67 -170 -121 -136 -96 -155
-112 -145 -122 5 -5 129 79 285 192 l62 45 0 -195 c0 -158 -3 -197 -14 -203
-36 -20 -275 -230 -275 -241 -1 -14 38 16 201 155 53 46 100 83 103 83 4 0 52
-36 108 -80 56 -44 105 -80 109 -80 28 0 -5 31 -151 145 l-51 40 0 142 c0 79
2 143 4 143 2 0 51 -48 109 -106 57 -59 107 -102 110 -97 4 6 -45 61 -108 124
l-115 113 0 112 0 111 54 12 c91 20 172 89 201 172 33 93 13 172 -65 250 -112
112 -259 119 -375 17 -55 -48 -84 -102 -92 -169 -5 -41 -9 -49 -22 -43 -34 14
-56 9 -59 -13 -3 -19 -6 -20 -33 -11 -16 5 -29 16 -29 24 0 58 -58 94 -124 76
-25 -7 -45 -7 -50 -1 -16 15 -62 10 -87 -9 -17 -15 -19 -21 -9 -27 8 -5 11 -4
6 3 -8 14 1 19 49 26 22 3 32 3 23 0 -15 -5 -15 -7 3 -25 37 -37 -17 -85 -66
-59 -13 7 -21 18 -18 26 3 8 0 14 -6 14 -6 0 -11 -6 -11 -14 0 -8 -13 -19 -30
-25 -22 -7 -30 -7 -30 2 0 7 -4 18 -9 26 -8 12 -13 12 -35 -2 -34 -23 -36 -22
-36 16 0 163 -204 303 -355 244z m202 -40 c151 -79 166 -304 25 -397 -112 -74
-239 -62 -329 32 -111 116 -66 318 83 374 51 19 177 13 221 -9z m1120 0 c132
-69 166 -259 66 -362 -56 -58 -108 -79 -188 -79 -80 0 -129 20 -182 76 -111
116 -66 318 83 374 51 19 177 13 221 -9z"/>
<path d="M180 1476 c0 -16 -7 -26 -22 -30 -23 -6 -23 -6 -3 -22 11 -8 19 -22
17 -30 -2 -9 6 -14 22 -14 13 0 31 -3 40 -6 10 -4 18 1 23 12 4 11 14 24 22
31 14 11 14 13 -2 25 -10 8 -17 20 -15 28 2 11 -5 14 -24 12 -14 -1 -29 2 -33
8 -11 18 -25 11 -25 -14z m47 -53 c-3 -3 -11 -2 -17 2 -9 6 -9 10 1 16 14 8
27 -7 16 -18z"/>
<path d="M420 1476 c0 -16 -7 -26 -22 -30 -23 -6 -23 -6 -3 -22 11 -8 20 -20
21 -27 2 -26 5 -27 23 -17 13 7 22 7 26 0 10 -16 35 -12 35 6 0 9 8 23 18 30
16 12 16 13 -1 26 -10 8 -17 20 -15 28 2 11 -5 14 -24 12 -14 -1 -29 2 -33 8
-11 18 -25 11 -25 -14z m50 -47 c0 -5 -4 -9 -10 -9 -5 0 -10 7 -10 16 0 8 5
12 10 9 6 -3 10 -10 10 -16z"/>
<path d="M210 1262 c0 -19 64 -53 109 -59 48 -5 89 7 135 42 35 27 8 27 -37 1
-56 -33 -103 -33 -151 -1 -38 26 -56 31 -56 17z"/>
<path d="M1345 1489 c-4 -6 -19 -7 -37 -4 -27 6 -29 5 -24 -13 5 -14 1 -24
-11 -31 -17 -10 -17 -12 2 -27 11 -8 19 -22 17 -30 -3 -16 23 -19 33 -4 4 7
13 7 26 0 18 -10 21 -9 23 17 1 7 10 19 21 27 20 16 20 16 -2 22 -16 4 -23 14
-23 30 0 25 -14 32 -25 13z m5 -60 c0 -5 -7 -9 -15 -9 -15 0 -20 12 -9 23 8 8
24 -1 24 -14z"/>
<path d="M1585 1490 c-3 -6 -17 -7 -31 -4 -20 5 -24 2 -24 -14 0 -12 -8 -26
-17 -31 -17 -10 -17 -12 2 -27 11 -8 19 -22 17 -30 -3 -16 23 -19 33 -4 4 7
12 7 25 0 26 -14 30 -13 30 11 0 12 8 27 17 34 15 11 15 13 -5 24 -12 6 -22
21 -22 31 0 21 -15 27 -25 10z m-4 -63 c-13 -13 -26 -3 -16 12 3 6 11 8 17 5
6 -4 6 -10 -1 -17z"/>
<path d="M1320 1264 c0 -27 88 -66 144 -63 38 3 115 43 116 62 0 13 -19 7 -57
-19 -31 -21 -46 -25 -82 -21 -23 3 -56 14 -72 26 -27 20 -49 27 -49 15z"/>
<path d="M2000 1355 c0 -52 -1 -98 -2 -102 -2 -5 9 -9 23 -11 25 -3 28 1 48
70 12 40 24 79 26 86 3 9 39 12 134 12 l130 0 -190 -317 c-104 -174 -189 -327
-189 -340 l0 -23 275 0 275 0 0 105 c0 98 -1 105 -20 105 -16 0 -24 -16 -46
-85 l-26 -85 -140 0 -139 0 12 23 c7 12 90 155 186 319 95 163 173 305 173
317 0 21 -3 21 -265 21 l-265 0 0 -95z"/>
<path d="M3370 1436 c0 -9 15 -17 40 -21 l40 -7 0 -319 0 -319 -40 0 c-33 0
-40 -3 -40 -20 0 -20 7 -20 270 -20 l270 0 0 110 c0 109 0 110 -24 110 -21 0
-26 -9 -48 -87 l-23 -88 -103 -3 -102 -3 0 320 0 320 45 7 c28 4 45 11 45 20
0 11 -31 14 -165 14 -135 0 -165 -3 -165 -14z"/>
<path d="M4150 1128 c-57 -178 -107 -331 -112 -340 -4 -9 -23 -18 -40 -20 -22
-2 -34 -9 -36 -20 -3 -16 7 -18 103 -18 96 0 106 2 103 18 -2 12 -14 18 -41
20 -20 2 -37 9 -37 15 0 7 10 49 22 95 l23 83 113 -3 114 -3 29 -90 c16 -49
29 -91 29 -92 0 -2 -15 -3 -32 -3 -39 0 -63 -13 -54 -29 5 -7 59 -11 161 -11
102 0 156 4 161 11 9 15 -14 29 -47 29 -26 0 -30 8 -103 223 -42 122 -93 274
-114 337 l-39 115 -49 3 -50 3 -104 -323z m149 21 l49 -154 -95 -3 c-53 -1
-98 -1 -100 2 -3 2 14 69 37 148 50 173 49 172 55 166 3 -2 27 -74 54 -159z"/>
<path d="M4580 1436 c0 -7 13 -16 28 -19 25 -5 38 -26 125 -206 l97 -200 0
-119 c0 -132 0 -132 -66 -132 -24 0 -34 -5 -34 -15 0 -13 27 -15 180 -15 153
0 180 2 180 15 0 10 -10 15 -34 15 -67 0 -66 -1 -66 144 l0 131 87 183 88 182
43 11 c24 7 42 17 42 25 0 11 -24 14 -115 14 -90 0 -115 -3 -115 -14 0 -8 19
-17 49 -22 l48 -9 -71 -157 c-39 -87 -74 -158 -77 -158 -3 0 -37 71 -77 158
-77 170 -77 170 -9 171 17 1 27 6 27 16 0 13 -25 15 -165 15 -133 0 -165 -3
-165 -14z"/>
<path d="M2610 1425 c0 -11 11 -15 40 -15 l40 0 0 -320 0 -320 -40 -6 c-26 -4
-40 -12 -40 -21 0 -13 28 -14 198 -11 172 4 204 7 253 26 147 58 211 159 213
332 0 84 -3 102 -28 158 -46 99 -126 160 -241 181 -32 6 -134 11 -227 11 -143
0 -168 -2 -168 -15z m380 -37 c94 -48 138 -167 128 -347 -5 -76 -11 -102 -38
-157 -41 -83 -87 -116 -171 -122 l-59 -4 0 326 0 326 48 0 c30 0 65 -9 92 -22z"/>
<path d="M848 823 c7 -3 16 -2 19 1 4 3 -2 6 -13 5 -11 0 -14 -3 -6 -6z"/>
<path d="M948 773 c7 -3 16 -2 19 1 4 3 -2 6 -13 5 -11 0 -14 -3 -6 -6z"/>
<path d="M870 758 c0 -7 -9 -24 -20 -38 -11 -14 -20 -27 -20 -30 0 -3 29 -5
65 -5 68 0 79 9 47 38 -21 19 -42 23 -24 5 20 -20 14 -28 -23 -28 -34 0 -46
12 -25 25 5 3 15 15 20 26 9 15 7 19 -5 19 -8 0 -15 -6 -15 -12z"/>
<path d="M3320 355 c0 -81 -1 -85 -22 -85 -16 0 -19 -3 -11 -11 6 -6 20 -8 32
-4 19 6 21 14 21 96 0 53 -4 89 -10 89 -6 0 -10 -35 -10 -85z"/>
<path d="M3470 420 c0 -6 30 -10 70 -10 40 0 70 4 70 10 0 6 -30 10 -70 10
-40 0 -70 -4 -70 -10z"/>
<path d="M3260 375 c0 -9 -7 -29 -15 -45 -10 -19 -11 -30 -5 -30 6 0 18 16 26
35 17 40 18 55 4 55 -5 0 -10 -7 -10 -15z"/>
<path d="M3389 350 c10 -22 21 -43 24 -47 13 -12 7 28 -8 57 -23 45 -37 36
-16 -10z"/>
<path d="M3440 360 c0 -5 14 -10 30 -10 35 0 37 -8 10 -43 -11 -14 -20 -29
-20 -34 0 -4 36 -8 79 -8 85 0 86 1 46 50 -16 20 -16 20 -12 -2 5 -22 -14 -33
-60 -33 -28 0 -28 4 -2 41 18 25 27 29 70 29 27 0 49 5 49 10 0 6 -38 10 -95
10 -57 0 -95 -4 -95 -10z"/>
<path d="M1970 315 l0 -25 575 0 575 0 0 25 0 25 -575 0 -575 0 0 -25z"/>
<path d="M4000 315 l0 -25 575 0 575 0 0 25 0 25 -575 0 -575 0 0 -25z"/>
</g>
</svg>
