<?xml version="1.0" standalone="no"?>
<!DOCTYPE svg PUBLIC "-//W3C//DTD SVG 20010904//EN"
 "http://www.w3.org/TR/2001/REC-SVG-20010904/DTD/svg10.dtd">
<svg version="1.0" xmlns="http://www.w3.org/2000/svg"
 width="523.000000pt" height="180.000000pt" viewBox="0 0 523.000000 180.000000"
 preserveAspectRatio="xMidYMid meet">

<g transform="translate(0.000000,180.000000) scale(0.100000,-0.100000)"
fill="#000000" stroke="none">
<path d="M3040 1436 c0 -14 29 -26 68 -26 l22 0 0 -320 0 -320 -45 0 c-38 0
-45 -3 -45 -20 0 -20 7 -20 275 -20 l275 0 0 110 c0 110 0 110 -24 110 -25 0
-32 -15 -63 -140 l-9 -35 -102 -3 -102 -3 0 320 0 319 45 6 c29 5 45 12 45 22
0 12 -29 14 -170 14 -138 0 -170 -3 -170 -14z"/>
<path d="M3917 1403 c-145 -452 -201 -619 -211 -625 -6 -4 -23 -8 -38 -8 -21
0 -28 -5 -28 -20 0 -20 5 -21 108 -18 87 2 107 6 107 18 0 10 -12 16 -38 18
-21 2 -40 9 -43 15 -2 7 6 48 19 92 l23 80 111 3 112 3 25 -81 c34 -106 34
-108 -11 -112 -27 -2 -39 -8 -41 -20 -3 -17 10 -18 163 -18 153 0 166 1 163
18 -2 12 -14 18 -39 20 l-37 3 -114 337 -115 337 -50 3 -51 3 -15 -48z m15
-411 c-52 -1 -97 -1 -99 2 -2 2 7 42 21 87 13 46 35 118 47 159 l22 75 52
-160 52 -160 -95 -3z"/>
<path d="M4260 1436 c0 -8 13 -17 28 -21 26 -5 38 -26 125 -208 l97 -202 0
-117 0 -117 -50 -7 c-32 -4 -50 -11 -50 -20 0 -11 34 -14 180 -14 146 0 180 3
180 14 0 9 -18 16 -50 20 l-50 7 0 134 0 135 90 180 c89 178 90 179 130 190
23 6 40 17 40 25 0 12 -21 15 -115 15 -93 0 -115 -3 -115 -14 0 -10 16 -17 45
-22 25 -3 45 -10 45 -14 0 -10 -129 -293 -138 -302 -4 -4 -39 64 -78 150 l-71
157 43 9 c27 5 44 14 44 22 0 11 -31 14 -165 14 -136 0 -165 -3 -165 -14z"/>
<path d="M2280 1426 c0 -12 11 -16 45 -16 l45 0 0 -319 0 -320 -45 -7 c-28 -4
-45 -11 -45 -20 0 -11 32 -14 175 -14 197 0 255 9 338 53 128 67 190 221 157
389 -22 115 -77 185 -185 235 -59 27 -64 28 -272 31 -189 3 -213 2 -213 -12z
m412 -52 c77 -54 114 -168 105 -324 -10 -182 -95 -290 -227 -290 l-40 0 0 326
0 326 60 -4 c46 -3 70 -11 102 -34z"/>
<path d="M590 960 c0 -29 58 -107 125 -168 61 -56 184 -146 191 -140 2 3 -19
36 -48 74 -111 149 -194 232 -245 248 -19 6 -23 4 -23 -14z"/>
<path d="M1502 960 c-18 -11 -58 -47 -89 -79 -57 -61 -183 -223 -178 -229 8
-8 133 86 202 151 76 72 130 148 118 167 -9 14 -15 13 -53 -10z"/>
<path d="M2280 330 c0 -113 -4 -109 90 -91 54 11 80 40 80 91 0 51 -26 80 -80
91 -94 18 -90 22 -90 -91z m118 64 c18 -12 22 -25 22 -64 0 -57 -22 -80 -77
-80 l-33 0 0 80 0 80 33 0 c18 0 43 -7 55 -16z"/>
<path d="M3130 330 l0 -100 65 0 c37 0 65 4 65 10 0 6 -22 10 -50 10 l-50 0 0
90 c0 73 -3 90 -15 90 -12 0 -15 -18 -15 -100z"/>
<path d="M3960 343 c-18 -49 -35 -94 -37 -100 -3 -7 0 -13 6 -13 7 0 17 14 22
30 10 28 15 30 59 30 46 0 49 -2 55 -30 4 -17 13 -30 22 -30 10 0 13 5 8 18
-4 9 -21 54 -38 100 -41 108 -54 108 -97 -5z m72 17 l16 -50 -38 0 -38 0 16
50 c9 28 18 50 21 50 3 0 13 -23 23 -50z"/>
<path d="M4760 425 c0 -2 14 -27 30 -55 21 -36 30 -64 30 -95 0 -33 4 -45 15
-45 11 0 15 11 15 36 0 22 13 60 36 100 25 45 32 64 22 64 -8 0 -25 -22 -38
-50 -13 -27 -27 -50 -32 -50 -4 0 -19 23 -33 50 -14 28 -30 50 -35 50 -6 0
-10 -2 -10 -5z"/>
<path d="M1021 354 c-27 -34 -26 -50 4 -79 28 -29 55 -32 83 -7 31 27 35 55
11 85 -28 36 -70 36 -98 1z"/>
</g>
</svg>
